<svg width="231" height="38" viewBox="0 0 231 38" fill="none" xmlns="http://www.w3.org/2000/svg">
<rect x="0.643066" width="38.0004" height="38.0004" rx="7.60007" fill="#202226"/>
<path d="M28.5488 12.6222L29.5162 13.5858L31.4508 11.6585L30.4835 10.6948C28.8843 9.10172 26.2815 9.10172 24.6823 10.6948L23.7149 11.6585L22.7476 10.6948C21.1484 9.10172 18.5456 9.10172 16.9464 10.6948L15.979 11.6585L15.0117 10.6948C13.4125 9.10172 10.8097 9.10172 9.2105 10.6948L8.24316 11.6585L10.1778 13.5858L11.1452 12.6222C11.6792 12.0902 12.5458 12.0902 13.0798 12.6222L14.0472 13.5858L13.0798 14.5495C11.4807 16.1426 11.4807 18.7356 13.0798 20.3287L14.0472 21.2924L10.1806 25.1443L14.0472 28.9961L15.9818 27.0688L14.0472 25.1415L15.9818 23.2141L19.8484 27.066L23.7149 23.2141L25.6496 25.1415L23.7149 27.0688L25.6496 28.9961L29.5162 25.1443L25.6496 21.2924L26.6169 20.3287C28.2161 18.7356 28.2161 16.1426 26.6169 14.5495L25.6496 13.5858L26.6169 12.6222C27.1509 12.0902 28.0176 12.0902 28.5516 12.6222H28.5488ZM18.8811 12.6222C19.415 12.0902 20.2817 12.0902 20.8157 12.6222L21.7831 13.5858L19.8484 15.5132L17.9137 13.5858L18.8811 12.6222ZM15.0145 18.4014C14.4805 17.8694 14.4805 17.006 15.0145 16.474L15.9818 15.5104L17.9165 17.4377L15.9818 19.365L15.0145 18.4014ZM19.8484 23.2169L17.9137 21.2896L19.8484 19.3623L21.7831 21.2896L19.8484 23.2169ZM24.6823 16.474C25.2163 17.006 25.2163 17.8694 24.6823 18.4014L23.7149 19.365L21.7803 17.4377L23.7149 15.5104L24.6823 16.474Z" fill="#EFEB00"/>
<path d="M143.831 13.5927V18.6293H151.1V20.4061H143.831V26.2468H141.757V11.8015H151.99V13.5975H143.826L143.831 13.5927Z" fill="white"/>
<path d="M154.664 11.7969H156.737V26.2422H154.664V11.7969Z" fill="white"/>
<path d="M172.518 11.7969V26.2422H170.821L162.121 15.4708V26.2422H160.047V11.7969H161.744L170.444 22.5682V11.7969H172.518Z" fill="white"/>
<path d="M185.178 22.6308H177.473L175.878 26.2422H173.747L180.315 11.7969H182.365L188.953 26.2422H186.778L185.182 22.6308H185.178ZM184.453 20.9793L181.325 13.9011L178.198 20.9793H184.453Z" fill="white"/>
<path d="M202.621 11.7969V26.2422H200.925L192.224 15.4708V26.2422H190.151V11.7969H191.847L200.548 22.5682V11.7969H202.621Z" fill="white"/>
<path d="M204.815 18.9954C204.815 14.71 208.097 11.585 212.524 11.585C214.767 11.585 216.725 12.3506 218.054 13.8432L216.705 15.1481C215.584 13.9684 214.211 13.4291 212.611 13.4291C209.329 13.4291 206.898 15.7885 206.898 19.0002C206.898 22.2119 209.329 24.5713 212.611 24.5713C214.211 24.5713 215.584 24.0127 216.705 22.833L218.054 24.1379C216.725 25.6306 214.772 26.4154 212.505 26.4154C208.097 26.4154 204.815 23.2905 204.815 19.005V18.9954Z" fill="white"/>
<path d="M230.838 24.4222V26.2182H220.316V11.7729H230.548V13.569H222.385V18.0037H229.654V19.7564H222.385V24.4222H230.838Z" fill="white"/>
<path d="M61.9797 23.0642V26.2229H50.3359V11.7776H61.9797V14.9363H54.396V17.3727H60.839V20.4255H54.396V23.069H61.9797V23.0642Z" fill="white"/>
<path d="M77.3502 26.2229L77.3067 18.5669L73.5801 24.7976H71.7579L68.0506 18.7739V26.2229H64.2612V11.7776H67.6398L72.7342 20.1125L77.703 11.7776H81.0816L81.1251 26.2229H77.355H77.3502Z" fill="white"/>
<path d="M96.6534 26.2229L96.6099 18.5669L92.8833 24.7976H91.0611L87.3539 18.7739V26.2229H83.5645V11.7776H86.9382L92.0326 20.1125L97.0062 11.7776H100.385L100.428 26.2229H96.6582H96.6534Z" fill="white"/>
<path d="M114.509 23.0642V26.2229H102.866V11.7776H114.509V14.9363H106.926V17.3727H113.369V20.4255H106.926V23.069H114.509V23.0642Z" fill="white"/>
<path d="M120.358 15.0181H115.907V11.7776H128.894V15.0181H124.462V26.2229H120.358V15.0181Z" fill="white"/>
<circle cx="133.568" cy="24.7754" r="1.44923" fill="white"/>
</svg>
